<?xml version="1.0" encoding="UTF-8" standalone="no"?>
<svg
   version="1.1"
   viewBox="0 0 560.0783 272.12493"
   fill="none"
   stroke="none"
   stroke-linecap="square"
   stroke-miterlimit="10"
   id="svg227"
   sodipodi:docname="LOGO-PROF-ACAUAN.svg"
   inkscape:version="1.2 (1:1.2.1+202207142221+cd75a1ee6d)"
   width="560.07831"
   height="272.12494"
   inkscape:export-filename="LOGO-PROF-ACAUAN.png"
   inkscape:export-xdpi="96"
   inkscape:export-ydpi="96"
   xmlns:inkscape="http://www.inkscape.org/namespaces/inkscape"
   xmlns:sodipodi="http://sodipodi.sourceforge.net/DTD/sodipodi-0.dtd"
   xmlns="http://www.w3.org/2000/svg"
   xmlns:svg="http://www.w3.org/2000/svg">
  <defs
     id="defs231" />
  <sodipodi:namedview
     id="namedview229"
     pagecolor="#ffffff"
     bordercolor="#666666"
     borderopacity="1.0"
     inkscape:showpageshadow="2"
     inkscape:pageopacity="0.0"
     inkscape:pagecheckerboard="0"
     inkscape:deskcolor="#d1d1d1"
     showgrid="false"
     inkscape:zoom="1.310467"
     inkscape:cx="232.74146"
     inkscape:cy="112.17375"
     inkscape:window-width="1680"
     inkscape:window-height="981"
     inkscape:window-x="1920"
     inkscape:window-y="32"
     inkscape:window-maximized="1"
     inkscape:current-layer="g517" />
  <clipPath
     id="p.0">
    <path
       d="M 0,0 H 560.8688 V 291.9265 H 0 Z"
       clip-rule="nonzero"
       id="path2" />
  </clipPath>
  <g
     clip-path="url(#p.0)"
     id="g225"
     inkscape:label="logo-prof-acauan">
    <g
       id="g517"
       inkscape:label="texto">
      <path
         fill="#000000"
         d="m 259.31603,205.86862 q -0.65625,0 -1.20313,-0.5 -0.53125,-0.5 -0.53125,-1.23437 v -43.1875 q 0,-0.73438 0.53125,-1.23438 0.54688,-0.5 1.20313,-0.5 h 19 q 9.0625,0 14.23437,4.14063 5.17188,4.125 5.17188,11.51562 0,4.67188 -2.14063,7.9375 -2.125,3.26563 -5.59375,5.125 l 8.65625,15.73438 q 0.20313,0.40625 0.20313,0.73437 0,0.60938 -0.40625,1.04688 -0.39063,0.42187 -0.98438,0.42187 h -11.26562 q -1.26563,0 -1.9375,-0.625 -0.67188,-0.64062 -0.875,-1.17187 l -6.65625,-13.73438 h -4.79688 v 13.79688 q 0,0.73437 -0.5,1.23437 -0.5,0.5 -1.23437,0.5 z m 12.60937,-26.53125 h 6.32813 q 2.32812,0 3.45312,-1.29687 1.14063,-1.29688 1.14063,-3.23438 0,-2 -1.09375,-3.39062 -1.09375,-1.40625 -3.5,-1.40625 h -6.32813 z m 34.51666,26.53125 q -0.65625,0 -1.20312,-0.5 -0.53125,-0.5 -0.53125,-1.23437 v -43.1875 q 0,-0.73438 0.53125,-1.23438 0.54687,-0.5 1.20312,-0.5 h 11.34375 q 0.73438,0 1.23438,0.5 0.5,0.5 0.5,1.23438 v 43.1875 q 0,0.73437 -0.5,1.23437 -0.5,0.5 -1.23438,0.5 z m 23.06311,0 q -0.65625,0 -1.20312,-0.5 -0.53125,-0.5 -0.53125,-1.23437 v -43.1875 q 0,-0.73438 0.53125,-1.23438 0.54687,-0.5 1.20312,-0.5 h 21.26563 q 6.0625,0 9.92187,1.60938 3.875,1.59375 5.73438,4.59375 1.875,3 1.875,7.39062 0,2.26563 -0.90625,4.03125 -0.89063,1.76563 -2.15625,2.9375 -1.26563,1.17188 -2.40625,1.70313 2.60937,1.125 4.53125,3.82812 1.9375,2.70313 1.9375,6.17188 0,4.65625 -2.10938,7.85937 -2.09375,3.20313 -6.0625,4.875 -3.95312,1.65625 -9.6875,1.65625 z m 12.60938,-10.0625 h 7.79687 q 2.26563,0 3.32813,-1.35937 1.0625,-1.375 1.0625,-3.04688 0,-1.73437 -1.14063,-3.03125 -1.125,-1.29687 -3.25,-1.29687 h -7.79687 z m 0,-18.53125 h 7.125 q 2.14062,0 3.14062,-1.20312 1,-1.20313 1,-2.79688 0,-1.59375 -1,-2.79687 -1,-1.20313 -3.14062,-1.20313 h -7.125 z m 35.31653,28.59375 q -0.65625,0 -1.20313,-0.5 -0.53125,-0.5 -0.53125,-1.23437 v -43.1875 q 0,-0.73438 0.53125,-1.23438 0.54688,-0.5 1.20313,-0.5 h 32.67187 q 0.73438,0 1.26563,0.5 0.53125,0.5 0.53125,1.23438 v 7.85937 q 0,0.67188 -0.53125,1.20313 -0.53125,0.53125 -1.26563,0.53125 H 389.5092 v 6.59375 h 19.125 q 0.73438,0 1.26563,0.5 0.53125,0.5 0.53125,1.23437 v 7.20313 q 0,0.73437 -0.53125,1.23437 -0.53125,0.5 -1.26563,0.5 h -19.125 v 6.73438 h 21.125 q 0.73438,0 1.26563,0.53125 0.53125,0.53125 0.53125,1.26562 v 7.79688 q 0,0.73437 -0.53125,1.23437 -0.53125,0.5 -1.26563,0.5 z m 43.52661,0 q -0.65625,0 -1.20313,-0.5 -0.53125,-0.5 -0.53125,-1.23437 v -43.1875 q 0,-0.73438 0.53125,-1.23438 0.54688,-0.5 1.20313,-0.5 h 11.34375 q 0.73437,0 1.23437,0.5 0.5,0.5 0.5,1.23438 v 43.1875 q 0,0.73437 -0.5,1.23437 -0.5,0.5 -1.23437,0.5 z m 23.06308,0 q -0.65625,0 -1.20313,-0.5 -0.53125,-0.5 -0.53125,-1.23437 v -43.1875 q 0,-0.73438 0.53125,-1.23438 0.54688,-0.5 1.20313,-0.5 h 19 q 9.0625,0 14.23437,4.14063 5.17188,4.125 5.17188,11.51562 0,4.67188 -2.14063,7.9375 -2.125,3.26563 -5.59375,5.125 l 8.65625,15.73438 q 0.20313,0.40625 0.20313,0.73437 0,0.60938 -0.40625,1.04688 -0.39063,0.42187 -0.98438,0.42187 h -11.26562 q -1.26563,0 -1.9375,-0.625 -0.67188,-0.64062 -0.875,-1.17187 l -6.65625,-13.73438 h -4.79688 v 13.79688 q 0,0.73437 -0.5,1.23437 -0.5,0.5 -1.23437,0.5 z m 12.60937,-26.53125 h 6.32813 q 2.32812,0 3.45312,-1.29687 1.14063,-1.29688 1.14063,-3.23438 0,-2 -1.09375,-3.39062 -1.09375,-1.40625 -3.5,-1.40625 h -6.32813 z m 52.65625,27.20313 q -6.40625,0 -11.10937,-2 -4.6875,-2 -7.39063,-6.03125 -2.70312,-4.03125 -2.90625,-10.03125 -0.0625,-2.8125 -0.0625,-5.76563 0,-2.96875 0.0625,-5.90625 0.20313,-5.9375 2.90625,-10 2.70313,-4.0625 7.4375,-6.15625 4.73438,-2.10937 11.0625,-2.10937 6.26563,0 11,2.10937 4.73438,2.09375 7.45313,6.15625 2.73437,4.0625 2.875,10 0.125,2.9375 0.125,5.90625 0,2.95313 -0.125,5.76563 -0.20313,6 -2.90625,10.03125 -2.6875,4.03125 -7.39063,6.03125 -4.70312,2 -11.03125,2 z m 0,-11.34375 q 2.79688,0 4.59375,-1.6875 1.79688,-1.70313 1.875,-5.4375 0.125,-2.85938 0.125,-5.5625 0,-2.70313 -0.125,-5.5 -0.0781,-2.46875 -0.90625,-4.0625 -0.82812,-1.60938 -2.26562,-2.34375 -1.4375,-0.73438 -3.29688,-0.73438 -1.875,0 -3.34375,0.73438 -1.45312,0.73437 -2.29687,2.34375 -0.82813,1.59375 -0.89063,4.0625 -0.0781,2.79687 -0.0781,5.5 0,2.70312 0.0781,5.5625 0.125,3.73437 1.89063,5.4375 1.76562,1.6875 4.64062,1.6875 z"
         fill-rule="nonzero"
         id="path223"
         inkscape:label="ribeiro" />
      <path
         fill="#000000"
         d="m 258.93475,135.4919 q -0.57131,0 -0.96221,-0.42188 -0.39089,-0.4375 -0.39089,-1.04687 0,-0.26563 0.0752,-0.46875 L 272.2703,90.898149 q 0.25558,-0.734375 0.90206,-1.390625 0.64649,-0.671875 1.78911,-0.671875 h 11.74191 q 1.21779,0 1.84923,0.671875 0.64648,0.65625 0.84194,1.390625 L 304.0832,133.5544 q 0.0602,0.20312 0.0602,0.46875 0,0.60937 -0.42097,1.04687 -0.40593,0.42188 -0.97723,0.42188 h -9.87763 q -1.09751,0 -1.60868,-0.53125 -0.51117,-0.53125 -0.70663,-1 l -1.98454,-5.59375 h -15.45543 l -1.99958,5.59375 q -0.18041,0.46875 -0.66152,1 -0.4811,0.53125 -1.63876,0.53125 z m 17.12424,-18.39063 h 9.56193 l -4.81104,-15 z m 50.66987,19.0625 q -6.08897,0 -10.64441,-1.96875 -4.55544,-1.96875 -7.1564,-5.96875 -2.60096,-4 -2.85654,-10.125 -0.0601,-2.73437 -0.0601,-5.85937 0,-3.14063 0.0601,-6.01563 0.25558,-6 2.91668,-10.031246 2.6611,-4.03125 7.24661,-6.03125 4.5855,-2 10.49406,-2 4.22467,0 7.90812,1.03125 3.69848,1.03125 6.5851,3.140625 2.88661,2.09375 4.55543,5.171875 1.66883,3.062496 1.72897,7.187496 0,0.59375 -0.42097,1.03125 -0.40593,0.4375 -0.99227,0.4375 h -10.83985 q -0.9622,0 -1.41324,-0.39062 -0.45104,-0.40625 -0.76676,-1.40625 -0.82689,-2.875 -2.43557,-3.875 -1.6087,-1.000001 -3.90896,-1.000001 -2.82648,0 -4.49532,1.578121 -1.66881,1.5625 -1.78909,5.5 -0.19545,5.45313 0,11.1875 0.12028,3.9375 1.78909,5.5 1.66884,1.5625 4.49532,1.5625 2.30026,0 3.93902,-1.0625 1.63875,-1.0625 2.40551,-3.79687 0.25559,-1.0625 0.73669,-1.42188 0.48111,-0.375 1.44331,-0.375 h 10.83985 q 0.58634,0 0.99227,0.40625 0.42097,0.39063 0.42097,0.98438 -0.0602,4.14062 -1.72897,7.25 -1.66882,3.09375 -4.55543,5.1875 -2.88662,2.09375 -6.5851,3.14062 -3.68345,1.03125 -7.90812,1.03125 z m 23.72927,-0.67187 q -0.57131,0 -0.9622,-0.42188 -0.39091,-0.4375 -0.39091,-1.04687 0,-0.26563 0.0752,-0.46875 l 14.61352,-42.656251 q 0.25558,-0.734375 0.90207,-1.390625 0.64647,-0.671875 1.78909,-0.671875 h 11.74192 q 1.21778,0 1.84923,0.671875 0.64649,0.65625 0.84193,1.390625 l 14.68867,42.656251 q 0.0601,0.20312 0.0601,0.46875 0,0.60937 -0.42097,1.04687 -0.40593,0.42188 -0.97724,0.42188 h -9.87763 q -1.09752,0 -1.6087,-0.53125 -0.51117,-0.53125 -0.70661,-1 l -1.98455,-5.59375 H 364.6356 l -1.99958,5.59375 q -0.18042,0.46875 -0.66151,1 -0.48111,0.53125 -1.63875,0.53125 z m 17.12426,-18.39063 h 9.56191 l -4.81103,-15 z m 50.85728,19.0625 q -5.96869,0 -10.49406,-1.9375 -4.51034,-1.9375 -7.05116,-6.03125 -2.52579,-4.09375 -2.52579,-10.35937 V 90.570024 q 0,-0.734375 0.51117,-1.234375 0.51117,-0.5 1.15766,-0.5 h 10.44895 q 0.70662,0 1.18773,0.5 0.48109,0.5 0.48109,1.234375 v 27.062496 q 0,3.39063 1.59366,5.125 1.60868,1.73438 4.63061,1.73438 3.00689,0 4.57048,-1.73438 1.57861,-1.73437 1.57861,-5.125 V 90.570024 q 0,-0.734375 0.51117,-1.234375 0.52622,-0.5 1.23283,-0.5 h 10.38881 q 0.70662,0 1.18772,0.5 0.4811,0.5 0.4811,1.234375 v 27.265626 q 0,6.26562 -2.51074,10.35937 -2.49573,4.09375 -6.99104,6.03125 -4.48027,1.9375 -10.3888,1.9375 z m 24.05483,-0.67187 q -0.5713,0 -0.9622,-0.42188 -0.3909,-0.4375 -0.3909,-1.04687 0,-0.26563 0.0752,-0.46875 l 14.6135,-42.656251 q 0.25558,-0.734375 0.90207,-1.390625 0.64647,-0.671875 1.78908,-0.671875 h 11.74193 q 1.21778,0 1.84923,0.671875 0.64649,0.65625 0.84193,1.390625 l 14.68867,42.656251 q 0.0601,0.20312 0.0601,0.46875 0,0.60937 -0.42097,1.04687 -0.40593,0.42188 -0.97724,0.42188 h -9.87764 q -1.09751,0 -1.60869,-0.53125 -0.51117,-0.53125 -0.70661,-1 l -1.98455,-5.59375 h -15.45543 l -1.99958,5.59375 q -0.18042,0.46875 -0.66152,1 -0.4811,0.53125 -1.63875,0.53125 z m 17.12425,-18.39063 h 9.56192 l -4.81102,-15 z m 33.98563,18.39063 q -0.63145,0 -1.15764,-0.5 -0.51118,-0.5 -0.51118,-1.23438 V 90.570024 q 0,-0.734375 0.51118,-1.234375 0.52619,-0.5 1.15764,-0.5 h 8.53961 q 1.15765,0 1.66882,0.53125 0.51117,0.53125 0.70662,0.859375 l 13.20025,22.062496 V 90.570024 q 0,-0.734375 0.51118,-1.234375 0.5262,-0.5 1.23282,-0.5 h 9.62205 q 0.69159,0 1.17269,0.5 0.4811,0.5 0.4811,1.234375 v 43.187496 q 0,0.73438 -0.4811,1.23438 -0.4811,0.5 -1.17269,0.5 h -8.47944 q -1.14261,0 -1.69888,-0.5625 -0.54124,-0.57813 -0.73669,-0.84375 l -13.21529,-20.85938 v 20.53125 q 0,0.73438 -0.4811,1.23438 -0.46607,0.5 -1.17269,0.5 z"
         fill-rule="nonzero"
         id="path221"
         inkscape:label="acauan"
         style="stroke-width:0.980921" />
      <path
         fill="#980000"
         d="m 262.03586,72.495148 q -0.39063,0 -0.67188,-0.28125 -0.28125,-0.28125 -0.28125,-0.671875 V 45.495152 q 0,-0.4375 0.28125,-0.71875 0.28125,-0.28125 0.67188,-0.28125 h 10.71875 q 3.125,0 5.4375,0.984375 2.32812,0.96875 3.60937,2.953125 1.28125,1.984375 1.28125,4.937496 0,3 -1.28125,4.953125 -1.28125,1.9375 -3.60937,2.90625 -2.3125,0.953125 -5.4375,0.953125 h -5.95313 v 9.359375 q 0,0.390625 -0.26562,0.671875 -0.26563,0.28125 -0.70313,0.28125 z m 4.6875,-14.765625 h 5.82812 q 2.32813,0 3.5625,-1.09375 1.25,-1.09375 1.25,-3.265625 0,-1.999996 -1.17187,-3.218746 -1.15625,-1.21875 -3.64063,-1.21875 h -5.82812 z m 21.67248,14.765625 q -0.39062,0 -0.67187,-0.28125 -0.28125,-0.28125 -0.28125,-0.671875 V 45.495152 q 0,-0.4375 0.28125,-0.71875 0.28125,-0.28125 0.67187,-0.28125 h 10.35938 q 4.84375,0 7.64062,2.25 2.79688,2.234375 2.79688,6.515621 0,2.953125 -1.46875,4.921875 -1.45313,1.953125 -3.89063,2.828125 l 5.84375,10.203125 q 0.125,0.234375 0.125,0.4375 0,0.359375 -0.26562,0.609375 -0.26563,0.234375 -0.57813,0.234375 h -3.64062 q -0.6875,0 -1.04688,-0.359375 -0.35937,-0.359375 -0.54687,-0.71875 l -5.17188,-9.484375 h -5.54687 v 9.609375 q 0,0.390625 -0.26563,0.671875 -0.26562,0.28125 -0.70312,0.28125 z m 4.60938,-15.078125 h 5.625 q 2.45312,0 3.64062,-1.09375 1.20313,-1.109375 1.20313,-3.109375 0,-1.999996 -1.1875,-3.140621 -1.17188,-1.140625 -3.65625,-1.140625 h -5.625 z m 32.02746,15.484375 q -3.5625,0 -6.125,-1.171875 -2.54687,-1.1875 -4,-3.640625 -1.4375,-2.46875 -1.54687,-6.15625 -0.0469,-1.71875 -0.0469,-3.390625 0,-1.6875 0.0469,-3.453125 0.10937,-3.640621 1.59375,-6.078121 1.48437,-2.4375 4.0625,-3.671875 2.57812,-1.25 6.01562,-1.25 3.4375,0 6.03125,1.25 2.60938,1.234375 4.09375,3.671875 1.48438,2.4375 1.59375,6.078121 0.0937,1.765625 0.0937,3.453125 0,1.671875 -0.0937,3.390625 -0.10937,3.6875 -1.5625,6.15625 -1.4375,2.453125 -4.01562,3.640625 -2.57813,1.171875 -6.14063,1.171875 z m 0,-4.609375 q 2.60938,0 4.25,-1.53125 1.64063,-1.546875 1.75,-5.03125 0.0781,-1.75 0.0781,-3.25 0,-1.5 -0.0781,-3.21875 -0.0781,-2.328121 -0.85937,-3.781246 -0.78125,-1.46875 -2.10938,-2.125 -1.3125,-0.65625 -3.03125,-0.65625 -1.67187,0 -3,0.65625 -1.3125,0.65625 -2.09375,2.125 -0.78125,1.453125 -0.85937,3.781246 -0.0469,1.71875 -0.0469,3.21875 0,1.5 0.0469,3.25 0.125,3.484375 1.75,5.03125 1.64062,1.53125 4.20312,1.53125 z m 18.00308,4.203125 q -0.39062,0 -0.67187,-0.28125 -0.28125,-0.28125 -0.28125,-0.671875 V 45.495152 q 0,-0.4375 0.28125,-0.71875 0.28125,-0.28125 0.67187,-0.28125 h 17.35938 q 0.4375,0 0.71875,0.28125 0.28125,0.28125 0.28125,0.71875 v 2.796875 q 0,0.4375 -0.28125,0.703125 -0.28125,0.265625 -0.71875,0.265625 h -12.84375 v 7.593746 h 12.04687 q 0.4375,0 0.71875,0.28125 0.28125,0.28125 0.28125,0.71875 v 2.796875 q 0,0.40625 -0.28125,0.6875 -0.28125,0.28125 -0.71875,0.28125 h -12.04687 v 9.921875 q 0,0.390625 -0.28125,0.671875 -0.26563,0.28125 -0.71875,0.28125 z m 21.40125,0 q -0.40625,0 -0.6875,-0.28125 -0.26563,-0.28125 -0.26563,-0.671875 v -3.96875 q 0,-0.4375 0.26563,-0.71875 0.28125,-0.28125 0.6875,-0.28125 h 4 q 0.40625,0 0.67187,0.28125 0.28125,0.28125 0.28125,0.71875 v 3.96875 q 0,0.390625 -0.28125,0.671875 -0.26562,0.28125 -0.67187,0.28125 z"
         fill-rule="nonzero"
         id="path219"
         inkscape:label="prof" />
    </g>
    <defs
       id="defs24">
      <filter
         id="shadowFilter-p.1"
         filterUnits="userSpaceOnUse">
        <feGaussianBlur
           in="SourceAlpha"
           stdDeviation="2.0"
           result="blur"
           id="feGaussianBlur11" />
        <feComponentTransfer
           in="blur"
           color-interpolation-filters="sRGB"
           id="feComponentTransfer21">
          <feFuncR
             type="linear"
             slope="0"
             intercept="0.0"
             id="feFuncR13" />
          <feFuncG
             type="linear"
             slope="0"
             intercept="0.0"
             id="feFuncG15" />
          <feFuncB
             type="linear"
             slope="0"
             intercept="0.0"
             id="feFuncB17" />
          <feFuncA
             type="linear"
             slope="0.5"
             intercept="0"
             id="feFuncA19" />
        </feComponentTransfer>
      </filter>
    </defs>
    <defs
       id="defs54">
      <filter
         id="shadowFilter-p.2"
         filterUnits="userSpaceOnUse">
        <feGaussianBlur
           in="SourceAlpha"
           stdDeviation="2.0"
           result="blur"
           id="feGaussianBlur41" />
        <feComponentTransfer
           in="blur"
           color-interpolation-filters="sRGB"
           id="feComponentTransfer51">
          <feFuncR
             type="linear"
             slope="0"
             intercept="0.0"
             id="feFuncR43" />
          <feFuncG
             type="linear"
             slope="0"
             intercept="0.0"
             id="feFuncG45" />
          <feFuncB
             type="linear"
             slope="0"
             intercept="0.0"
             id="feFuncB47" />
          <feFuncA
             type="linear"
             slope="0.5"
             intercept="0"
             id="feFuncA49" />
        </feComponentTransfer>
      </filter>
    </defs>
    <defs
       id="defs84">
      <filter
         id="shadowFilter-p.3"
         filterUnits="userSpaceOnUse">
        <feGaussianBlur
           in="SourceAlpha"
           stdDeviation="2.0"
           result="blur"
           id="feGaussianBlur71" />
        <feComponentTransfer
           in="blur"
           color-interpolation-filters="sRGB"
           id="feComponentTransfer81">
          <feFuncR
             type="linear"
             slope="0"
             intercept="0.0"
             id="feFuncR73" />
          <feFuncG
             type="linear"
             slope="0"
             intercept="0.0"
             id="feFuncG75" />
          <feFuncB
             type="linear"
             slope="0"
             intercept="0.0"
             id="feFuncB77" />
          <feFuncA
             type="linear"
             slope="0.5"
             intercept="0"
             id="feFuncA79" />
        </feComponentTransfer>
      </filter>
    </defs>
    <defs
       id="defs114">
      <filter
         id="shadowFilter-p.4"
         filterUnits="userSpaceOnUse">
        <feGaussianBlur
           in="SourceAlpha"
           stdDeviation="2.0"
           result="blur"
           id="feGaussianBlur101" />
        <feComponentTransfer
           in="blur"
           color-interpolation-filters="sRGB"
           id="feComponentTransfer111">
          <feFuncR
             type="linear"
             slope="0"
             intercept="0.0"
             id="feFuncR103" />
          <feFuncG
             type="linear"
             slope="0"
             intercept="0.0"
             id="feFuncG105" />
          <feFuncB
             type="linear"
             slope="0"
             intercept="0.0"
             id="feFuncB107" />
          <feFuncA
             type="linear"
             slope="0.5"
             intercept="0"
             id="feFuncA109" />
        </feComponentTransfer>
      </filter>
    </defs>
    <defs
       id="defs144">
      <filter
         id="shadowFilter-p.5"
         filterUnits="userSpaceOnUse">
        <feGaussianBlur
           in="SourceAlpha"
           stdDeviation="2.0"
           result="blur"
           id="feGaussianBlur131" />
        <feComponentTransfer
           in="blur"
           color-interpolation-filters="sRGB"
           id="feComponentTransfer141">
          <feFuncR
             type="linear"
             slope="0"
             intercept="0.0"
             id="feFuncR133" />
          <feFuncG
             type="linear"
             slope="0"
             intercept="0.0"
             id="feFuncG135" />
          <feFuncB
             type="linear"
             slope="0"
             intercept="0.0"
             id="feFuncB137" />
          <feFuncA
             type="linear"
             slope="0.5"
             intercept="0"
             id="feFuncA139" />
        </feComponentTransfer>
      </filter>
    </defs>
    <defs
       id="defs174">
      <filter
         id="shadowFilter-p.6"
         filterUnits="userSpaceOnUse">
        <feGaussianBlur
           in="SourceAlpha"
           stdDeviation="2.0"
           result="blur"
           id="feGaussianBlur161" />
        <feComponentTransfer
           in="blur"
           color-interpolation-filters="sRGB"
           id="feComponentTransfer171">
          <feFuncR
             type="linear"
             slope="0"
             intercept="0.0"
             id="feFuncR163" />
          <feFuncG
             type="linear"
             slope="0"
             intercept="0.0"
             id="feFuncG165" />
          <feFuncB
             type="linear"
             slope="0"
             intercept="0.0"
             id="feFuncB167" />
          <feFuncA
             type="linear"
             slope="0.5"
             intercept="0"
             id="feFuncA169" />
        </feComponentTransfer>
      </filter>
    </defs>
    <defs
       id="defs204">
      <filter
         id="shadowFilter-p.7"
         filterUnits="userSpaceOnUse">
        <feGaussianBlur
           in="SourceAlpha"
           stdDeviation="2.0"
           result="blur"
           id="feGaussianBlur191" />
        <feComponentTransfer
           in="blur"
           color-interpolation-filters="sRGB"
           id="feComponentTransfer201">
          <feFuncR
             type="linear"
             slope="0"
             intercept="0.0"
             id="feFuncR193" />
          <feFuncG
             type="linear"
             slope="0"
             intercept="0.0"
             id="feFuncG195" />
          <feFuncB
             type="linear"
             slope="0"
             intercept="0.0"
             id="feFuncB197" />
          <feFuncA
             type="linear"
             slope="0.5"
             intercept="0"
             id="feFuncA199" />
        </feComponentTransfer>
      </filter>
    </defs>
    <g
       id="g555"
       inkscape:label="cube"
       inkscape:transform-center-x="0.71466161"
       inkscape:transform-center-y="10.596627"
       transform="matrix(0.95973271,0,0,0.87369723,2.9197286,9.266755)">
      <g
         id="p.1"
         style="display:inline">
        <path
           fill="#ffffff"
           d="M 116.80703,155.34439 72.28331,190.74997 27.759583,155.34439 72.28331,119.93882 Z"
           fill-rule="evenodd"
           id="path26"
           style="display:inline" />
        <path
           fill="#cbcbcb"
           d="m 72.28331,190.74997 v 44.14949 L 27.759583,199.49388 v -44.14949 z"
           fill-rule="evenodd"
           id="path28"
           style="display:inline" />
        <path
           fill="#ffffff"
           d="m 116.80703,155.34439 v 44.14949 l -44.52372,35.40558 v -44.14949 z"
           fill-rule="evenodd"
           id="path30"
           style="display:inline" />
        <path
           fill="#000000"
           fill-opacity="0"
           d="m 116.80703,155.34439 v 44.14949 L 72.28331,234.89946 27.759583,199.49388 V 155.34439 L 72.28331,119.93882 Z m 0,0 -44.52372,35.40558 v 44.14949 m 0,-44.14949 -44.523727,-35.40558"
           fill-rule="evenodd"
           id="path32"
           style="display:inline" />
        <path
           stroke="#21d1d1"
           stroke-width="8"
           stroke-linejoin="round"
           stroke-linecap="butt"
           d="m 116.80703,155.34439 v 44.14949 L 72.28331,234.89946 27.759583,199.49388 V 155.34439 L 72.28331,119.93882 Z m 0,0 -44.52372,35.40558 v 44.14949 m 0,-44.14949 -44.523727,-35.40558"
           fill-rule="evenodd"
           id="path34"
           style="display:inline" />
      </g>
      <g
         id="p.2"
         style="display:inline">
        <path
           fill="#ffffff"
           d="m 231.34525,158.5405 -44.52373,35.40558 -44.52371,-35.40558 44.52371,-35.40557 z"
           fill-rule="evenodd"
           id="path56" />
        <path
           fill="#cbcbcb"
           d="m 186.82152,193.94608 v 44.14947 L 142.29781,202.68999 V 158.5405 Z"
           fill-rule="evenodd"
           id="path58"
           style="display:inline" />
        <path
           fill="#ffffff"
           d="m 231.34525,158.5405 v 44.14949 l -44.52373,35.40556 v -44.14947 z"
           fill-rule="evenodd"
           id="path60"
           style="display:inline" />
        <path
           stroke="#21d1d1"
           stroke-width="8"
           stroke-linejoin="round"
           stroke-linecap="butt"
           d="m 231.34525,158.5405 v 44.14949 l -44.52373,35.40556 -44.52371,-35.40556 V 158.5405 l 44.52371,-35.40557 z m 0,0 -44.52373,35.40558 v 44.14947 m 0,-44.14947 -44.52371,-35.40558"
           fill-rule="evenodd"
           id="path64"
           style="display:inline" />
      </g>
      <g
         id="p.3"
         style="display:inline">
        <path
           fill="#ffffff"
           d="M 175.13782,200.63206 130.61409,236.03762 86.090373,200.63206 130.61409,165.22648 Z"
           fill-rule="evenodd"
           id="path86"
           style="display:inline" />
        <path
           fill="#cbcbcb"
           d="m 130.61409,236.03763 v 44.14948 L 86.09037,244.78154 v -44.14947 z"
           fill-rule="evenodd"
           id="path88"
           style="display:inline" />
        <path
           fill="#ffffff"
           d="m 175.13782,200.63206 v 44.14947 l -44.52373,35.40557 v -44.14948 z"
           fill-rule="evenodd"
           id="path90"
           style="display:inline" />
        <path
           stroke="#21d1d1"
           stroke-width="8"
           stroke-linejoin="round"
           stroke-linecap="butt"
           d="m 175.13782,200.63206 v 44.14947 L 130.61409,280.1871 86.090373,244.78153 v -44.14947 l 44.523717,-35.40558 z m 0,0 -44.52373,35.40556 v 44.14948 m 0,-44.14948 -44.523717,-35.40556"
           fill-rule="evenodd"
           id="path94"
           style="display:inline" />
      </g>
      <g
         id="p.4"
         style="display:inline">
        <path
           fill="#ffffff"
           d="M 175.13782,45.701294 130.61409,81.106864 86.090373,45.701294 130.61409,10.295714 Z"
           fill-rule="evenodd"
           id="path116" />
        <path
           fill="#cbcbcb"
           d="M 130.61409,81.106865 V 125.25635 L 86.09037,89.850768 V 45.701293 Z"
           fill-rule="evenodd"
           id="path118" />
        <path
           fill="#ffffff"
           d="M 175.13782,45.701294 V 89.850769 L 130.61409,125.25635 V 81.106866 Z"
           fill-rule="evenodd"
           id="path120" />
        <path
           stroke="#21d1d1"
           stroke-width="8"
           stroke-linejoin="round"
           stroke-linecap="butt"
           d="M 175.13782,45.701294 V 89.850769 L 130.61409,125.25635 86.090373,89.850769 V 45.701294 l 44.523717,-35.40558 z m 0,0 -44.52373,35.40557 v 44.149486 m 0,-44.149486 -44.523717,-35.40557"
           fill-rule="evenodd"
           id="path124" />
      </g>
      <g
         id="p.5"
         style="display:inline">
        <path
           fill="#ffffff"
           d="M 116.80703,93.9028 72.28331,129.30838 27.759583,93.9028 72.28331,58.49723 Z"
           fill-rule="evenodd"
           id="path146" />
        <path
           fill="#cbcbcb"
           d="m 72.28331,129.30838 v 44.14947 L 27.759583,138.05229 V 93.902802 Z"
           fill-rule="evenodd"
           id="path148" />
        <path
           fill="#ffffff"
           d="m 116.80703,93.9028 v 44.14949 l -44.52372,35.40556 v -44.14947 z"
           fill-rule="evenodd"
           id="path150" />
        <path
           stroke="#21d1d1"
           stroke-width="8"
           stroke-linejoin="round"
           stroke-linecap="butt"
           d="m 116.80703,93.9028 v 44.14949 L 72.28331,173.45785 27.759583,138.05229 V 93.9028 L 72.28331,58.49723 Z m 0,0 -44.52372,35.40558 v 44.14947 m 0,-44.14947 L 27.759583,93.9028"
           fill-rule="evenodd"
           id="path154" />
      </g>
      <g
         id="p.6"
         style="display:inline">
        <path
           fill="#ffffff"
           d="M 233.4686,93.90073 188.94489,129.30631 144.42116,93.90073 188.94489,58.49515 Z"
           fill-rule="evenodd"
           id="path176" />
        <path
           fill="#cbcbcb"
           d="m 188.94489,129.3063 v 44.14947 L 144.42116,138.05019 V 93.90072 Z"
           fill-rule="evenodd"
           id="path178" />
        <path
           fill="#ffffff"
           d="m 233.4686,93.90073 v 44.14947 l -44.52371,35.40558 v -44.14947 z"
           fill-rule="evenodd"
           id="path180" />
        <path
           stroke="#21d1d1"
           stroke-width="8"
           stroke-linejoin="round"
           stroke-linecap="butt"
           d="M 233.4686,93.90073 V 138.0502 L 188.94489,173.45578 144.42116,138.0502 V 93.90073 l 44.52373,-35.40558 z m 0,0 -44.52371,35.40558 v 44.14947 m 0,-44.14947 -44.52373,-35.40558"
           fill-rule="evenodd"
           id="path184"
           style="display:inline" />
      </g>
      <g
         id="p.7"
         style="display:inline;stroke:#21d1d1;stroke-opacity:1">
        <path
           fill="#ffffff"
           d="M 175.13782,136.9818 130.61409,172.38738 86.090373,136.9818 130.61409,101.57623 Z"
           fill-rule="evenodd"
           id="path206"
           style="display:inline;stroke:#21d1d1;stroke-opacity:1" />
        <path
           fill="#cbcbcb"
           d="m 130.61409,172.38737 v 44.14949 L 86.09037,181.13128 v -44.14949 z"
           fill-rule="evenodd"
           id="path208"
           style="display:inline;stroke:#21d1d1;stroke-opacity:1" />
        <path
           fill="#ffffff"
           d="m 175.13782,136.9818 v 44.14949 l -44.52373,35.40558 v -44.14949 z"
           fill-rule="evenodd"
           id="path210"
           style="display:inline;stroke:#21d1d1;stroke-opacity:1" />
        <path
           stroke="#21d1d1"
           stroke-width="8"
           stroke-linejoin="round"
           stroke-linecap="butt"
           d="m 175.13782,136.9818 v 44.14949 L 130.61409,216.53687 86.090373,181.13129 V 136.9818 l 44.523717,-35.40557 z m 0,0 -44.52373,35.40558 v 44.14949 m 0,-44.14949 -44.523717,-35.40558"
           fill-rule="evenodd"
           id="path214"
           style="display:inline;stroke:#21d1d1;stroke-opacity:1" />
      </g>
    </g>
  </g>
</svg>
